<?xml version="1.0" encoding="UTF-8" standalone="no" ?>
<!DOCTYPE svg PUBLIC "-//W3C//DTD SVG 1.1//EN" "http://www.w3.org/Graphics/SVG/1.1/DTD/svg11.dtd">
<svg xmlns="http://www.w3.org/2000/svg" xmlns:xlink="http://www.w3.org/1999/xlink" version="1.1" width="500" height="500" viewBox="0 0 500 500" xml:space="preserve">
<desc>Created with Fabric.js 4.6.0</desc>
<defs>
</defs>
<g transform="matrix(2.82 0 0 2.82 250 250)" id="Bgze3VGHI3tjft2IajeQL"  >
<path style="stroke: rgb(239,38,0); stroke-width: 22; stroke-dasharray: none; stroke-linecap: butt; stroke-dashoffset: 0; stroke-linejoin: miter; stroke-miterlimit: 4; fill: none; fill-rule: nonzero; opacity: 1;" vector-effect="non-scaling-stroke"  transform=" translate(0, 0)" d="M -39.64891 -22.8273 C -39.64891 -32.11762 -32.11762 -39.64891 -22.8273 -39.64891 L 22.8273 -39.64891 L 22.8273 -39.64891 C 32.11762 -39.64891 39.64891 -32.11762 39.64891 -22.8273 L 39.64891 22.8273 L 39.64891 22.8273 C 39.64891 32.11762 32.11762 39.64891 22.8273 39.64891 L -22.8273 39.64891 L -22.8273 39.64891 C -32.11762 39.64891 -39.64891 32.11762 -39.64891 22.8273 z" stroke-linecap="round" />
</g>
<g transform="matrix(0.62 0 0 0.62 360.87 250)" id="C_f4L5kOyRqOFyiG0yjUS"  >
<path style="stroke: rgb(239,235,0); stroke-width: 22; stroke-dasharray: none; stroke-linecap: butt; stroke-dashoffset: 0; stroke-linejoin: miter; stroke-miterlimit: 4; fill: none; fill-rule: nonzero; opacity: 1;" vector-effect="non-scaling-stroke"  transform=" translate(0, 0)" d="M 0 -74.15254 C 40.9322 -74.15254 74.15254 -40.9322 74.15254 0 C 74.15254 40.9322 40.9322 74.15254 0 74.15254 C -40.9322 74.15254 -74.15254 40.9322 -74.15254 0 C -74.15254 -40.9322 -40.9322 -74.15254 0 -74.15254 z" stroke-linecap="round" />
</g>
<g transform="matrix(-2.82 0 0 -2.82 250 250)" id="T3fCzq4WEfzIu5vFEhhKO"  >
<path style="stroke: rgb(239,38,0); stroke-width: 22; stroke-dasharray: none; stroke-linecap: butt; stroke-dashoffset: 0; stroke-linejoin: miter; stroke-miterlimit: 4; fill: none; fill-rule: nonzero; opacity: 1;" vector-effect="non-scaling-stroke"  transform=" translate(0, 0)" d="M 0 -74.15254 C 40.9322 -74.15254 74.15254 -40.9322 74.15254 0 C 74.15254 40.9322 40.9322 74.15254 0 74.15254 C -40.9322 74.15254 -74.15254 40.9322 -74.15254 0 C -74.15254 -40.9322 -40.9322 -74.15254 0 -74.15254 z" stroke-linecap="round" />
</g>
<g transform="matrix(2.82 0 0 2.82 250 250)" id="lJ0cD_1_NJMHwpfngQb2L"  >
<path style="stroke: rgb(239,38,0); stroke-width: 22; stroke-dasharray: none; stroke-linecap: butt; stroke-dashoffset: 0; stroke-linejoin: miter; stroke-miterlimit: 4; fill: rgb(239,38,0); fill-rule: nonzero; opacity: 1;" vector-effect="non-scaling-stroke"  transform=" translate(0, 0)" d="M 0 -7.26392 C 4.00968 -7.26392 7.26392 -4.0096799999999995 7.26392 0 C 7.26392 4.00968 4.0096799999999995 7.26392 0 7.26392 C -4.00968 7.26392 -7.26392 4.0096799999999995 -7.26392 0 C -7.26392 -4.00968 -4.0096799999999995 -7.26392 0 -7.26392 z" stroke-linecap="round" />
</g>
</svg>